{"title":"Au Nom De Tous Les Miens.DVDRip.DIvx","uid":5714153,"size":1554356982,"categoryP":"video","categoryS":"movies","magnet":"?xt=urn:btih:5627a9569581238c6fe0d6d1950e89897220d589&amp;dn=Au+Nom+De+Tous+Les+Miens.DVDRip.DIvx&amp;tr=udp%3A%2F%2Ftracker.openbittorrent.com%3A80&amp;tr=udp%3A%2F%2Fopen.demonii.com%3A1337&amp;tr=udp%3A%2F%2Ftracker.coppersurfer.tk%3A6969&amp;tr=udp%3A%2F%2Fexodus.desync.com%3A6969","seeders":0,"leechers":1,"uploader":"gibresh","files":-1,"time":1280015593,"description":"Title......Au nom de tous les miens (For Those I Loved)\nYear.......1983\nCast.......Michael York, Jacques Penot, Macha MÃƒÆ’Ã‚Â©ril, Brigitte Fossey\nDirector...Robert Enrico\n\nLanguage...French\nsubtitle...NO (Unfortunately)\n\nIMBd.......http://www.imdb.com/title/tt0085190/\n\n\nFormat                           : AVI\nFile size                        : 1.44 GiB\nDuration                         : 2h 20mn\nOverall bit rate                 : 1 473 Kbps\n\nVideo:\nFormat                           : MPEG-4 Visual\nFormat settings, Matrix          : Default (H.263)\nCodec ID                         : DX50\nCodec ID/Hint                    : DivX 5\nDuration                         : 2h 20mn\nBit rate                         : 1 271 Kbps\nWidth                            : 624 pixels\nHeight                           : 336 pixels\nDisplay aspect ratio             : 1.857\nFrame rate                       : 25.000 fps\nScan type                        : Progressive\nBits/(Pixel*Frame)               : 0.243\nStream size                      : 1.25 GiB (86%)\n\n\nAudio:                           \nFormat                           : AC-3\nCodec ID                         : 2000\nDuration                         : 2h 20mn\nBit rate                         : 192 Kbps\nChannel(s)                       : 2 channels\nChannel positions                : Front: L R\nSampling rate                    : 48.0 KHz\nStream size                      : 193 MiB (13%)","torrent":{"xt":"urn:btih:5627a9569581238c6fe0d6d1950e89897220d589","amp;dn":"Au+Nom+De+Tous+Les+Miens.DVDRip.DIvx","amp;tr":["udp%3A%2F%2Ftracker.openbittorrent.com%3A80","udp%3A%2F%2Fopen.demonii.com%3A1337","udp%3A%2F%2Ftracker.coppersurfer.tk%3A6969","udp%3A%2F%2Fexodus.desync.com%3A6969"],"infoHash":"5627a9569581238c6fe0d6d1950e89897220d589","infoHashBuffer":{"type":"Buffer","data":[86,39,169,86,149,129,35,140,111,224,214,209,149,14,137,137,114,32,213,137]},"announce":[],"urlList":[]}}